<svg width="113" height="32" viewBox="0 0 113 32" fill="none" xmlns="http://www.w3.org/2000/svg">
<g id="logo.svg" clip-path="url(#clip0_1_1970)">
<path id="Vector" d="M46.5401 18.2651H53.5322C53.4241 17.9811 53.3161 17.6971 53.2041 17.4172H46.8721C46.7601 17.6971 46.6521 17.9931 46.5401 18.2651Z" fill="url(#paint0_linear_1_1970)"/>
<path id="Vector_2" d="M76.5518 29.761C75.9274 29.3629 75.3846 28.8497 74.9519 28.2491C74.4983 27.67 74.1354 27.0252 73.8759 26.3369C73.5038 25.357 71.6719 20.8969 68.9078 14.1769C70.4358 11.2009 71.9611 8.22361 73.4839 5.24492C74.6838 2.93692 75.7918 1.56892 77.1279 1.31692L77.3238 1.29692H77.4878V0.496918H70.6878V1.33292L71.3038 1.36492C71.8906 1.39013 72.4462 1.63582 72.8598 2.05292C73.0731 2.35085 73.183 2.71062 73.1718 3.07693C73.1718 3.75694 71.0638 8.08493 68.4878 13.1649L63.2678 0.49292H58.8078L59.6078 2.41693C59.8746 3.03559 60.133 3.65826 60.3838 4.28493C62.2799 8.82893 64.1358 13.393 66.0198 17.945C65.9318 18.1089 65.8478 18.2729 65.7638 18.437C64.3758 21.1009 63.0158 23.701 61.8758 25.865C59.7238 20.129 58.1078 15.9689 56.8398 12.6889C55.7238 9.76493 54.1358 5.61692 52.1838 0.496918H47.7117C48.2957 2.00892 48.8786 3.52226 49.4598 5.03691L45.4918 15.8369L41.4557 26.869C39.9438 29.933 38.0757 30.0129 38.0757 30.0129V30.737H46.7438V29.993C46.7438 29.993 43.4918 30.1729 42.8478 27.801C42.6601 26.938 42.7058 26.0406 42.9798 25.2009L44.9277 19.849C45.4158 18.5157 45.9065 17.1716 46.3997 15.817L49.9198 6.21692C51.157 9.41693 52.3918 12.6169 53.6238 15.817L54.2078 17.3849L54.5758 18.285L55.1478 19.849C56.5398 23.477 57.9198 27.089 59.2958 30.717H60.4238L61.4078 28.793C61.7119 28.209 62.0158 27.613 62.3198 27.029C63.6158 24.509 64.8998 21.9929 66.1958 19.465L66.4478 18.977C67.389 21.2437 68.3398 23.5103 69.2998 25.777C69.4226 26.1292 69.5122 26.4921 69.5678 26.861C69.7878 28.213 69.3158 29.0049 68.6839 29.445C68.015 29.8688 67.2354 30.0846 66.4438 30.065V30.737H77.4838V30.065L77.2159 30.033C76.9822 29.9752 76.7586 29.8835 76.5518 29.761Z" fill="url(#paint1_linear_1_1970)"/>
<path id="Vector_3" d="M38.076 17.4215H0.807861V18.2575H38.076V17.4215Z" fill="url(#paint2_linear_1_1970)"/>
<path id="Vector_4" d="M112.772 17.4215H77.4803V18.2575H112.772V17.4215Z" fill="url(#paint3_linear_1_1970)"/>
</g>
<defs>
<linearGradient id="paint0_linear_1_1970" x1="50.0361" y1="1.26114" x2="50.0361" y2="30.3331" gradientUnits="userSpaceOnUse">
<stop offset="0.09" stop-color="#AF6F57"/>
<stop offset="0.12" stop-color="#CA927A"/>
<stop offset="0.14" stop-color="#E0AD96"/>
<stop offset="0.17" stop-color="#F0C1AA"/>
<stop offset="0.2" stop-color="#F9CDB6"/>
<stop offset="0.22" stop-color="#FCD1BA"/>
<stop offset="0.26" stop-color="#F7CBB4"/>
<stop offset="0.32" stop-color="#EABBA3"/>
<stop offset="0.33" stop-color="#E6B69E"/>
<stop offset="0.34" stop-color="#E1AF97"/>
<stop offset="0.35" stop-color="#CD967C"/>
<stop offset="0.36" stop-color="#BD8166"/>
<stop offset="0.38" stop-color="#B17155"/>
<stop offset="0.41" stop-color="#A8654A"/>
<stop offset="0.44" stop-color="#A35F43"/>
<stop offset="0.53" stop-color="#A25D41"/>
<stop offset="0.59" stop-color="#BA7051"/>
<stop offset="0.66" stop-color="#D08160"/>
<stop offset="0.72" stop-color="#DD8C69"/>
<stop offset="0.79" stop-color="#DE8C6A"/>
<stop offset="0.81" stop-color="#C87B5B"/>
<stop offset="0.83" stop-color="#B76E4F"/>
<stop offset="0.86" stop-color="#AB6447"/>
<stop offset="0.89" stop-color="#A45F42"/>
<stop offset="0.99" stop-color="#A25D41"/>
</linearGradient>
<linearGradient id="paint1_linear_1_1970" x1="57.7798" y1="0.62492" x2="57.7798" y2="30.685" gradientUnits="userSpaceOnUse">
<stop offset="0.09" stop-color="#AF6F57"/>
<stop offset="0.12" stop-color="#CA927A"/>
<stop offset="0.14" stop-color="#E0AD96"/>
<stop offset="0.17" stop-color="#F0C1AA"/>
<stop offset="0.2" stop-color="#F9CDB6"/>
<stop offset="0.22" stop-color="#FCD1BA"/>
<stop offset="0.26" stop-color="#F7CBB4"/>
<stop offset="0.32" stop-color="#EABBA3"/>
<stop offset="0.33" stop-color="#E6B69E"/>
<stop offset="0.34" stop-color="#E1AF97"/>
<stop offset="0.35" stop-color="#CD967C"/>
<stop offset="0.36" stop-color="#BD8166"/>
<stop offset="0.38" stop-color="#B17155"/>
<stop offset="0.41" stop-color="#A8654A"/>
<stop offset="0.44" stop-color="#A35F43"/>
<stop offset="0.53" stop-color="#A25D41"/>
<stop offset="0.59" stop-color="#BA7051"/>
<stop offset="0.66" stop-color="#D08160"/>
<stop offset="0.72" stop-color="#DD8C69"/>
<stop offset="0.79" stop-color="#DE8C6A"/>
<stop offset="0.81" stop-color="#C87B5B"/>
<stop offset="0.83" stop-color="#B76E4F"/>
<stop offset="0.86" stop-color="#AB6447"/>
<stop offset="0.89" stop-color="#A45F42"/>
<stop offset="0.99" stop-color="#A25D41"/>
</linearGradient>
<linearGradient id="paint2_linear_1_1970" x1="19.4439" y1="3.85743" x2="19.4439" y2="28.5936" gradientUnits="userSpaceOnUse">
<stop offset="0.09" stop-color="#AF6F57"/>
<stop offset="0.12" stop-color="#CA927A"/>
<stop offset="0.14" stop-color="#E0AD96"/>
<stop offset="0.17" stop-color="#F0C1AA"/>
<stop offset="0.2" stop-color="#F9CDB6"/>
<stop offset="0.22" stop-color="#FCD1BA"/>
<stop offset="0.26" stop-color="#F7CBB4"/>
<stop offset="0.32" stop-color="#EABBA3"/>
<stop offset="0.33" stop-color="#E6B69E"/>
<stop offset="0.34" stop-color="#E1AF97"/>
<stop offset="0.35" stop-color="#CD967C"/>
<stop offset="0.36" stop-color="#BD8166"/>
<stop offset="0.38" stop-color="#B17155"/>
<stop offset="0.41" stop-color="#A8654A"/>
<stop offset="0.44" stop-color="#A35F43"/>
<stop offset="0.53" stop-color="#A25D41"/>
<stop offset="0.59" stop-color="#BA7051"/>
<stop offset="0.66" stop-color="#D08160"/>
<stop offset="0.72" stop-color="#DD8C69"/>
<stop offset="0.79" stop-color="#DE8C6A"/>
<stop offset="0.81" stop-color="#C87B5B"/>
<stop offset="0.83" stop-color="#B76E4F"/>
<stop offset="0.86" stop-color="#AB6447"/>
<stop offset="0.89" stop-color="#A45F42"/>
<stop offset="0.99" stop-color="#A25D41"/>
</linearGradient>
<linearGradient id="paint3_linear_1_1970" x1="95.1284" y1="3.41343" x2="95.1284" y2="28.3896" gradientUnits="userSpaceOnUse">
<stop offset="0.09" stop-color="#AF6F57"/>
<stop offset="0.12" stop-color="#CA927A"/>
<stop offset="0.14" stop-color="#E0AD96"/>
<stop offset="0.17" stop-color="#F0C1AA"/>
<stop offset="0.2" stop-color="#F9CDB6"/>
<stop offset="0.22" stop-color="#FCD1BA"/>
<stop offset="0.26" stop-color="#F7CBB4"/>
<stop offset="0.32" stop-color="#EABBA3"/>
<stop offset="0.33" stop-color="#E6B69E"/>
<stop offset="0.34" stop-color="#E1AF97"/>
<stop offset="0.35" stop-color="#CD967C"/>
<stop offset="0.36" stop-color="#BD8166"/>
<stop offset="0.38" stop-color="#B17155"/>
<stop offset="0.41" stop-color="#A8654A"/>
<stop offset="0.44" stop-color="#A35F43"/>
<stop offset="0.53" stop-color="#A25D41"/>
<stop offset="0.59" stop-color="#BA7051"/>
<stop offset="0.66" stop-color="#D08160"/>
<stop offset="0.72" stop-color="#DD8C69"/>
<stop offset="0.79" stop-color="#DE8C6A"/>
<stop offset="0.81" stop-color="#C87B5B"/>
<stop offset="0.83" stop-color="#B76E4F"/>
<stop offset="0.86" stop-color="#AB6447"/>
<stop offset="0.89" stop-color="#A45F42"/>
<stop offset="0.99" stop-color="#A25D41"/>
</linearGradient>
<clipPath id="clip0_1_1970">
<rect width="111.964" height="31.35" fill="white" transform="translate(0.807861 0.158325)"/>
</clipPath>
</defs>
</svg>
